HIERARCHY
ROOT Hips
{
	OFFSET 0 0 0
	CHANNELS 6 Xposition Yposition Zposition Yrotation Xrotation Zrotation
	JOINT Spine
	{
		OFFSET -0 8.38753 -2.67353
		CHANNELS 3 Yrotation Xrotation Zrotation
		JOINT Spine1
		{
			OFFSET -0 8.14501 0
			CHANNELS 3 Yrotation Xrotation Zrotation
			JOINT Spine2
			{
				OFFSET -0 8.14501 0
				CHANNELS 3 Yrotation Xrotation Zrotation
				JOINT Spine3
				{
					OFFSET -0 8.14501 0
					CHANNELS 3 Yrotation Xrotation Zrotation
					JOINT Neck
					{
						OFFSET -0 20.4023 3.67353
						CHANNELS 3 Yrotation Xrotation Zrotation
						JOINT Head
						{
							OFFSET -0 10.4844 0
							CHANNELS 3 Yrotation Xrotation Zrotation
							End Site
							{
								OFFSET 0 15 0
							}
						}
					}
					JOINT LeftShoulder
					{
						OFFSET 1.7474 7.28686 3.4948
						CHANNELS 3 Yrotation Xrotation Zrotation
						JOINT LeftArm
						{
							OFFSET 15.4467 0 0
							CHANNELS 3 Yrotation Xrotation Zrotation
							JOINT LeftForeArm
							{
								OFFSET 24.9712 0 0
								CHANNELS 3 Yrotation Xrotation Zrotation
								JOINT LeftHand
								{
									OFFSET 23.8013 0 0
									CHANNELS 3 Yrotation Xrotation Zrotation
									End Site
									{
										OFFSET 15 0 0
									}
								}
							}
						}
					}
					JOINT RightShoulder
					{
						OFFSET -1.7474 7.28686 3.4948
						CHANNELS 3 Yrotation Xrotation Zrotation
						JOINT RightArm
						{
							OFFSET -15.4467 0 0
							CHANNELS 3 Yrotation Xrotation Zrotation
							JOINT RightForeArm
							{
								OFFSET -24.9712 0 0
								CHANNELS 3 Yrotation Xrotation Zrotation
								JOINT RightHand
								{
									OFFSET -23.8013 0 0
									CHANNELS 3 Yrotation Xrotation Zrotation
									End Site
									{
										OFFSET -15 0 0
									}
								}
							}
						}
					}
				}
			}
		}
	}
	JOINT LeftUpLeg
	{
		OFFSET 10.4844 -3.4948 2
		CHANNELS 3 Yrotation Xrotation Zrotation
		JOINT LeftLeg
		{
			OFFSET -0 -39.9267 2.44636
			CHANNELS 3 Yrotation Xrotation Zrotation
			JOINT LeftFoot
			{
				OFFSET -0 -41.4083 -2.44636
				CHANNELS 3 Yrotation Xrotation Zrotation
				JOINT LeftToeBase
				{
					OFFSET -0 -6.74672 15.7266
					CHANNELS 3 Yrotation Xrotation Zrotation
					End Site
					{
						OFFSET 0 0 5
					}
				}
			}
		}
	}
	JOINT RightUpLeg
	{
		OFFSET -10.4844 -3.4948 2
		CHANNELS 3 Yrotation Xrotation Zrotation
		JOINT RightLeg
		{
			OFFSET -0 -39.9267 2.44636
			CHANNELS 3 Yrotation Xrotation Zrotation
			JOINT RightFoot
			{
				OFFSET -0 -41.4083 -2.44636
				CHANNELS 3 Yrotation Xrotation Zrotation
				JOINT RightToeBase
				{
					OFFSET -0 -6.74672 15.7266
					CHANNELS 3 Yrotation Xrotation Zrotation
					End Site
					{
						OFFSET 0 0 5
					}
				}
			}
		}
	}
}
MOTION
Frames: 16
Frame Time: 0.00833333
0 95.070404 0 0 0 0 0 0 0 0 0 0 0 0 0 0 0 0 0 0 0 0 0 0 0 0 0 0 0 0 0 0 0 0 0 0 0 0 0 0 0 0 0 0 0 0 0 0 0 0 0 0 0 0 0 0 0 0 0 0 0 0 0 0 0 0 0 0 0 0 0 0
-80.839563 95.278705 -9.190012 -0.549831 2.199192 0.312372 -0.313751 0.432649 -0.229606 -0.121423 0.339309 -0.156622 0.472897 0.197780 -0.058913 0.666890 0.163470 0.102346 -1.337524 -5.068116 1.967124 -0.650988 5.738606 -2.323244 20.879606 12.587611 5.789052 -55.692894 -5.102433 -56.610904 -4.326721 -6.235546 5.661945 4.509680 -2.002737 -8.502435 -8.154252 -2.781340 -7.094281 27.493716 8.410044 70.869739 7.897695 8.528452 -4.999601 -11.522161 -3.289929 16.402689 5.170275 0.325273 2.432478 0.000000 -0.802864 0.000000 3.819364 1.757257 1.453646 0.000000 -5.325810 0.000000 -8.795230 -0.224297 -0.673160 0.000000 0.046226 0.000000 -8.522599 0.464726 -0.898063 0.000000 -4.914901 0.000000
-80.840021 95.279156 -9.188197 -0.565315 2.199544 0.319510 -0.311233 0.431298 -0.248381 -0.119127 0.335567 -0.159962 0.480676 0.187413 -0.054653 0.675343 0.169081 0.103314 -1.356080 -5.065106 1.980216 -0.659229 5.731831 -2.325611 20.866398 12.607308 5.796221 -55.703218 -5.103768 -56.603843 -4.306403 -6.207636 5.663725 4.503988 -2.059567 -8.520396 -8.156901 -2.754510 -7.084341 27.457607 8.403743 70.839043 7.892796 8.538358 -4.986647 -11.538080 -3.303074 16.373877 5.160833 0.324934 2.429513 0.000000 -0.791501 0.000000 3.829130 1.749183 1.429100 0.000000 -5.306363 0.000000 -8.749240 -0.219957 -0.684875 0.000000 0.038807 0.000000 -8.535526 0.453459 -0.873584 0.000000 -4.887283 0.000000
-80.841327 95.278564 -9.188771 -0.574631 2.199339 0.320860 -0.306743 0.434144 -0.246279 -0.114520 0.320793 -0.166608 0.462438 0.192128 -0.064293 0.658017 0.172029 0.087400 -1.343876 -5.049793 2.023126 -0.654686 5.701287 -2.347987 20.887930 12.608886 5.812444 -55.663502 -5.105272 -56.595338 -4.325421 -6.203589 5.673191 4.518539 -2.034737 -8.561578 -8.124478 -2.735851 -7.065577 27.452244 8.399336 70.837237 7.880123 8.566649 -5.004194 -11.538493 -3.299359 16.389946 5.172412 0.325894 2.428083 0.000000 -0.790655 0.000000 3.834279 1.743702 1.422870 0.000000 -5.290600 0.000000 -8.762242 -0.221580 -0.681887 0.000000 0.036624 0.000000 -8.522947 0.458569 -0.893063 0.000000 -4.900225 0.000000
-80.841248 95.278937 -9.186357 -0.576662 2.200049 0.316081 -0.313149 0.422208 -0.248480 -0.121132 0.317912 -0.168952 0.483895 0.193873 -0.066773 0.678409 0.186678 0.099923 -1.380044 -5.059854 2.029965 -0.670774 5.714578 -2.358001 20.848969 12.601381 5.804077 -55.660338 -5.101652 -56.596124 -4.324866 -6.193518 5.667361 4.504853 -2.040355 -8.555507 -8.157364 -2.730057 -7.070802 27.477053 8.410389 70.829145 7.875299 8.582346 -5.010111 -11.527007 -3.385279 16.388607 5.163063 0.329683 2.431877 0.000000 -0.797611 0.000000 3.843044 1.749035 1.447558 0.000000 -5.305844 0.000000 -8.767264 -0.224114 -0.677504 0.000000 0.043036 0.000000 -8.516504 0.454141 -0.871498 0.000000 -4.895791 0.000000
-80.841089 95.278961 -9.185537 -0.586997 2.201264 0.309380 -0.310049 0.425666 -0.241588 -0.117897 0.303143 -0.174479 0.462389 0.198355 -0.075394 0.657464 0.178430 0.087389 -1.368025 -5.039984 2.051535 -0.665487 5.682997 -2.340957 20.893600 12.608997 5.834084 -55.651453 -5.109947 -56.607716 -4.330727 -6.195665 5.686388 4.499958 -2.054386 -8.532114 -8.125619 -2.727681 -7.043359 27.453526 8.420718 70.805912 7.877120 8.664905 -4.996961 -11.510827 -3.436453 16.439707 5.160186 0.330886 2.440080 0.000000 -0.793895 0.000000 3.855662 1.729032 1.410163 0.000000 -5.258024 0.000000 -8.780457 -0.224206 -0.670786 0.000000 0.039121 0.000000 -8.496540 0.460420 -0.873098 0.000000 -4.906822 0.000000
-80.838672 95.279163 -9.185294 -0.601543 2.200775 0.312552 -0.311658 0.420769 -0.260228 -0.120255 0.315049 -0.166132 0.457567 0.193600 -0.061416 0.655441 0.173098 0.069021 -1.369082 -5.044931 2.066818 -0.666654 5.690216 -2.357185 20.941113 12.609482 5.832265 -55.682046 -5.088150 -56.581625 -4.353505 -6.200854 5.682886 4.484372 -2.087358 -8.565730 -8.105629 -2.711372 -7.039260 27.443622 8.423003 70.792089 7.896936 8.674965 -4.991319 -11.540250 -3.469159 16.414279 5.170587 0.330314 2.433823 0.000000 -0.788132 0.000000 3.859635 1.731118 1.429624 0.000000 -5.305067 0.000000 -8.770879 -0.224986 -0.675250 0.000000 0.040565 0.000000 -8.488354 0.457884 -0.882150 0.000000 -4.880491 0.000000
-80.835632 95.277960 -9.184905 -0.620323 2.201126 0.298857 -0.310551 0.414424 -0.245771 -0.119386 0.308244 -0.161369 0.466491 0.195534 -0.065028 0.664256 0.178241 0.066879 -1.394564 -5.048076 2.042391 -0.677128 5.703752 -2.325356 20.920224 12.619024 5.836451 -55.637254 -5.111515 -56.588035 -4.378684 -6.178595 5.684779 4.536342 -2.050625 -8.601452 -8.104282 -2.698120 -7.042569 27.495118 8.486456 70.797207 7.975375 8.671839 -5.035255 -11.605020 -3.608800 16.488747 5.177420 0.336597 2.440813 0.000000 -0.795863 0.000000 3.882559 1.709278 1.481342 0.000000 -5.271567 0.000000 -8.783855 -0.230422 -0.663094 0.000000 0.043516 0.000000 -8.460509 0.472922 -0.875135 0.000000 -4.908641 0.000000
-80.835590 95.279272 -9.184834 -0.630365 2.201744 0.307265 -0.309139 0.418091 -0.255792 -0.117867 0.297863 -0.174677 0.464302 0.192168 -0.071971 0.660538 0.175373 0.076192 -1.403399 -5.027715 2.060208 -0.681331 5.683544 -2.336552 20.911685 12.602696 5.843913 -55.622594 -5.096512 -56.617544 -4.374429 -6.171742 5.691342 4.489569 -2.067755 -8.569456 -8.103650 -2.692022 -7.032269 27.391643 8.432010 70.754286 7.944844 8.663332 -4.986974 -11.602441 -3.477649 16.443889 5.178746 0.332400 2.435820 0.000000 -0.785894 0.000000 3.886396 1.724688 1.442833 0.000000 -5.330275 0.000000 -8.764975 -0.227048 -0.671057 0.000000 0.035461 0.000000 -8.467647 0.463327 -0.901840 0.000000 -4.877553 0.000000
-80.831525 95.279004 -9.182397 -0.650902 2.201287 0.303177 -0.297868 0.421669 -0.232430 -0.106502 0.283676 -0.176637 0.469146 0.186566 -0.088210 0.665519 0.182622 0.062617 -1.429872 -5.010112 2.050039 -0.692441 5.673622 -2.323047 20.895327 12.609120 5.862688 -55.611289 -5.109493 -56.620550 -4.375850 -6.136573 5.678187 4.462305 -2.114994 -8.516093 -8.111376 -2.683225 -7.033414 27.388248 8.445828 70.767569 7.947338 8.744508 -5.007999 -11.594482 -3.593102 16.483267 5.191487 0.334797 2.436077 0.000000 -0.780704 0.000000 3.892334 1.706652 1.457498 0.000000 -5.290045 0.000000 -8.767024 -0.230567 -0.668671 0.000000 0.038733 0.000000 -8.453308 0.473078 -0.886279 0.000000 -4.899289 0.000000
-80.829736 95.279712 -9.178855 -0.661926 2.201149 0.308347 -0.304941 0.402128 -0.249794 -0.113923 0.303844 -0.177576 0.470592 0.187857 -0.081046 0.666788 0.172394 0.067150 -1.420502 -5.021929 2.049320 -0.689097 5.700658 -2.321525 20.918094 12.604127 5.859578 -55.619869 -5.099811 -56.633999 -4.393575 -6.184204 5.706088 4.476632 -2.048923 -8.543018 -8.120167 -2.681669 -7.030988 27.431490 8.468561 70.745923 7.974316 8.733605 -4.994532 -11.600729 -3.547773 16.477853 5.203377 0.333687 2.430469 0.000000 -0.768513 0.000000 3.887658 1.699727 1.439076 0.000000 -5.268298 0.000000 -8.751784 -0.228259 -0.675353 0.000000 0.034806 0.000000 -8.451890 0.462889 -0.897180 0.000000 -4.881814 0.000000
-80.825732 95.277734 -9.177964 -0.677314 2.201591 0.304934 -0.296300 0.389084 -0.240368 -0.105534 0.293050 -0.174542 0.474643 0.198251 -0.082595 0.671108 0.183005 0.063268 -1.432226 -5.025020 2.022276 -0.694111 5.727753 -2.296958 20.884307 12.600201 5.851725 -55.603361 -5.112710 -56.634760 -4.371606 -6.167726 5.680813 4.465858 -2.139215 -8.498329 -8.145488 -2.690601 -7.050179 27.500375 8.481090 70.772254 7.962131 8.690558 -5.029527 -11.617692 -3.583453 16.488814 5.213924 0.334440 2.430776 0.000000 -0.764972 0.000000 3.894215 1.701166 1.450120 0.000000 -5.298695 0.000000 -8.745320 -0.227549 -0.676688 0.000000 0.034926 0.000000 -8.442155 0.448045 -0.860384 0.000000 -4.878257 0.000000
-80.822656 95.282086 -9.175790 -0.693111 2.198910 0.295075 -0.298711 0.397537 -0.242159 -0.108453 0.287081 -0.166896 0.467386 0.183003 -0.074012 0.665402 0.188736 0.055220 -1.411611 -5.019978 2.036583 -0.686488 5.739746 -2.329026 20.907238 12.607454 5.839639 -55.608914 -5.090883 -56.626260 -4.385075 -6.224216 5.695521 4.474066 -2.052740 -8.539028 -8.114456 -2.704294 -7.048547 27.470314 8.467437 70.759911 7.920789 8.703792 -5.007002 -11.603072 -3.543214 16.432460 5.201004 0.336523 2.440843 0.000000 -0.757853 0.000000 3.926285 1.702328 1.442692 0.000000 -5.326678 0.000000 -8.748560 -0.236440 -0.667572 0.000000 0.048005 0.000000 -8.429362 0.488764 -0.842309 0.000000 -4.931660 0.000000
-80.818292 95.278644 -9.174684 -0.709675 2.199159 0.305103 -0.293105 0.394688 -0.230942 -0.102889 0.279806 -0.177135 0.464630 0.195837 -0.093574 0.661347 0.165178 0.042135 -1.404933 -4.988858 2.045427 -0.683961 5.720755 -2.321107 20.912355 12.605593 5.873889 -55.602508 -5.101000 -56.642955 -4.376034 -6.215365 5.695118 4.471421 -2.061609 -8.513847 -8.103813 -2.681444 -7.039745 27.444993 8.469219 70.757310 7.953864 8.621086 -4.988950 -11.637388 -3.455269 16.361802 5.206495 0.337984 2.427370 0.000000 -0.747035 0.000000 3.930184 1.676151 1.445471 0.000000 -5.291105 0.000000 -8.731447 -0.232996 -0.682907 0.000000 0.044238 0.000000 -8.421928 0.444247 -0.852011 0.000000 -4.840644 0.000000
-80.814380 95.280560 -9.171255 -0.733548 2.196577 0.300887 -0.285714 0.372729 -0.219162 -0.095646 0.297599 -0.180113 0.461271 0.177329 -0.104157 0.657593 0.191761 0.041770 -1.393907 -4.997391 2.058277 -0.680305 5.741011 -2.341586 20.904956 12.588311 5.865574 -55.609522 -5.087890 -56.650376 -4.355293 -6.260017 5.692105 4.456444 -2.042651 -8.503784 -8.107737 -2.700760 -7.028895 27.461592 8.457909 70.745603 7.900995 8.691711 -4.980303 -11.591486 -3.530904 16.336415 5.193001 0.342551 2.430446 0.000000 -0.741344 0.000000 3.965277 1.683836 1.432591 0.000000 -5.302909 0.000000 -8.715664 -0.234511 -0.680295 0.000000 0.048867 0.000000 -8.428537 0.470940 -0.844861 0.000000 -4.913514 0.000000
-80.809601 95.280511 -9.170621 -0.753589 2.197252 0.305795 -0.285088 0.368011 -0.225674 -0.095537 0.286549 -0.178173 0.471030 0.189094 -0.099915 0.667325 0.190058 0.040582 -1.396601 -4.998431 2.048398 -0.681279 5.742372 -2.356546 20.879969 12.586655 5.862600 -55.598812 -5.096795 -56.671296 -4.347205 -6.282567 5.726159 4.459943 -1.968148 -8.561759 -8.112106 -2.698071 -7.043645 27.496339 8.486838 70.748931 7.937113 8.721846 -4.993419 -11.624325 -3.637038 16.392960 5.215872 0.342065 2.420874 0.000000 -0.734860 0.000000 3.956641 1.680203 1.451936 0.000000 -5.296919 0.000000 -8.696568 -0.233520 -0.688807 0.000000 0.036091 0.000000 -8.423015 0.479994 -0.845864 0.000000 -4.904334 0.000000
